<mxfile host="app.diagrams.net" modified="2023-12-17T13:57:11.714Z" agent="Mozilla/5.0 (Windows NT 10.0; Win64; x64) AppleWebKit/537.36 (KHTML, like Gecko) Chrome/118.0.0.0 Safari/537.36 OPR/104.0.0.0" version="22.1.11" etag="MGp-4eRJT4qBFJig4oYD" type="github">
  <diagram name="Page-1" id="PgnqIS6lgeiCJgFE-4ww">
    <mxGraphModel>
      <root>
        <mxCell id="0" />
        <mxCell id="1" parent="0" />
      </root>
    </mxGraphModel>
  </diagram>
</mxfile>
